<svg xmlns="http://www.w3.org/2000/svg" xmlns:xlink="http://www.w3.org/1999/xlink" viewBox="0 0 384 384"><defs><style>.cls-1{fill:none;}.cls-2{clip-path:url(#clip-path);}.cls-3{fill:#fff;}.cls-4{fill:#8b1913;}.cls-5{fill:#273882;}.cls-6{fill:#263882;}.cls-7{fill:#8c1d16;}.cls-8{fill:#8d1e16;}.cls-9{fill:#8d1e17;}.cls-10{fill:#293982;}.cls-11{fill:#2e2e4e;}.cls-12{fill:#28346f;}.cls-13{fill:#2f3566;}.cls-14{fill:#3c3a5b;}</style><clipPath id="clip-path" transform="translate(49.83 49.83)"><circle class="cls-1" cx="142.17" cy="142.17" r="142.17"/></clipPath></defs><g id="Calque_2" data-name="Calque 2"><g id="Calque_1-2" data-name="Calque 1"><g class="cls-2"><path class="cls-3" d="M142.18,334.1q-94.44,0-188.88.07c-2.44,0-3.13-.32-3.13-3q.13-188.89,0-377.79c0-2.8.69-3.21,3.29-3.21q188.7.11,377.39,0c2.53,0,3.32.32,3.32,3.18q-.15,188.9,0,377.8c0,2.63-.62,3-3.1,3Q236.62,334,142.18,334.1ZM265.25,174.72c-4.29.12-8.65-.93-12.86.69-.65,3,2.25,2.75,3.61,3.73,5.22,3.77,11.11,6.5,16.27,10.39,1.54,1.16,3,1.84,3.9-1.34,1.06-3.7,1.6-7.55,3-11.14.62-1.58.82-2.8-1.61-2.59s-4.72.18-7.08.25ZM34.06,99.78c1.81.08,4,.9,5.12-1,.67-1.13-1-2.31-1.87-2.87-7-4.36-14-8.64-21.11-12.78-2.14-1.24-4.07-1.09-5.07,1.92-1.19,3.58-2.87,7-4.25,10.53C5.44,99.33,6,100,10.16,99.78ZM98.57,7.07c-9.91,2.64-19.09,7-27.93,12.08A147.78,147.78,0,0,0,43.09,39.64c-2.16,2-2.52,3.49.5,5.38C51.3,49.85,58.81,55,66.35,60.1c11.31,7.67,22.3,15.81,34,22.88,1.07.65,2.08,1.69,3.34,1.09,1.45-.68.63-2.21.63-3.32q.12-35.28.11-70.58V5.36A17.14,17.14,0,0,0,98.57,7.07Zm80,267.9c0,1.77-.62,4.49,1.79,4.33,2.61-.17,5.56-.69,7.74-2.7,3.69-1.81,7.7-2.85,11.5-4.33,7.28-2.83,13.7-7,20.23-11,9.91-6,18.06-14.27,26-22.66,3-3.13,2.78-5.33-.76-7.74-2-1.36-4.1-2.55-6.13-3.86q-16.25-10.44-32.46-20.9c-8-5.19-15.93-10.47-23.92-15.66-2.1-1.36-3.53-1.62-3.55,1.85-.12,25.92-.4,51.84-.51,77.76C178.52,271.69,177.47,273.37,178.6,275Zm-60.07-53.3h0c0,19.7,0,39.39.06,59.09,0,1.16-1.11,3.14,1.64,3.24,3.69.15,7.32.83,11,.76,9.29-.18,18.58,0,27.88-.65,3.33-.22,4.23-1.49,4.27-4.23.07-3.93,0-7.86,0-11.79,0-34.91.05-69.82-.09-104.73,0-3.43.9-4.32,4.32-4.31,36.4.09,72.79,0,109.19-.05,6.28,0,6.32,0,6.28-6.36-.09-11.74.63-23.51-1.46-35.18-.45-2.54-.7-4.22-4.23-4.21-36.41.17-72.81,0-109.21.21-3.81,0-4.87-1-4.85-4.66.15-32.91.13-65.82.26-98.72,0-8.32.2-8.3-8.18-9C154.33,1,153.15.38,152,.41c-8.92.18-17.85-.62-26.75.68-6.66,1-6.67.87-6.68,6.44,0,33.65-.13,67.31-.05,101,0,3.75-.84,5-4.88,5-36.15-.18-72.3-.07-108.46-.17-2.66,0-3.71.84-4.05,3.34-.57,4.23-1.21,8.43-1.6,12.7A136.59,136.59,0,0,0-.44,157c.19,1.7.71,2,2.21,2,3.36-.05,6.72.11,10.07.11,34.15,0,68.3,0,102.45-.23,3.58,0,4.33,1.1,4.31,4.41C118.46,182.77,118.53,202.22,118.53,221.67Zm-14.15,12.56c0-13.85-.11-27.69.08-41.53.05-3.42-1.18-3.46-3.61-2.37a10.59,10.59,0,0,0-1.95,1c-12.57,8.95-25.77,17-38.51,25.67-8,5.44-16.31,10.5-24.64,15.47-2.51,1.5-2.36,3-.71,4.82a150,150,0,0,0,37.17,30c8.88,5.1,18.52,8.46,28.05,12,2.79,1,4.11,0,4.12-3.17Q104.41,255.18,104.38,234.23ZM178.45,45q0,18.33,0,36.66c0,1-.58,2.41.48,3.08,1.22.77,1.92-.61,2.83-1.17,11.58-7.08,22.5-15.15,33.8-22.64,8.45-5.61,16.79-11.4,25.3-16.91,1.51-1,1.76-1.32.46-2.53-3.28-3-6.24-6.49-9.77-9.21-15.05-11.59-31.39-20.75-49.76-26.14-3.32-1-3.42-.06-3.4,2.57C178.49,20.8,178.45,32.89,178.45,45ZM94.54,173.21c-4.23.24-8.11-.49-11.86,2.26-10.55,7.69-21.83,14.29-33,21.13C41,202,32.17,207.19,23.41,212.52c-4.52,2.75-4.58,2.84-1.69,7.42,1.58,2.51,3.72,4.66,5.22,7.2,1.14,1.93,2.29,1.65,3.58.64,7.31-5.7,15.3-10.39,23.1-15.31q17.82-11.25,35.45-22.78c4.52-2.94,8.93-6.07,13.42-9.07,2.18-1.46,1.45-3.57,1.13-5.42s-2-2.13-3.75-2S96.13,173.21,94.54,173.21ZM188,100c5.92.74,10.88-1,15.79-4.58,9.12-6.68,19-12.3,28.64-18.17,8-4.83,15.67-10.07,23.49-15.14,1.3-.84,1.71-1.59.38-3.08-2.61-2.94-5-6.14-7.29-9.31-1.24-1.68-2.44-1.18-3.78-.29q-8.88,5.91-17.75,11.82C212,71.62,196.55,82.05,181,92.26c-2.78,1.82-2.43,3.82-1.94,6.36.6,3.09,2.73,1.14,4.12,1.35A32.67,32.67,0,0,0,188,100Zm10.82,73.72c0,2.11.58,2.21,1,2.48,8.69,5.9,17.43,11.73,26.4,17.21q17.38,10.62,34.6,21.51c2,1.26,2.92.62,3.63-1.08,1.71-4.07,4.62-7.5,5.93-11.76-11.65-7.41-23.39-15-35.29-22.39-3.61-2.23-6.77-5.76-11.31-5.9C215.45,173.57,207.13,173.75,198.82,173.75ZM84.89,100.51a5.5,5.5,0,0,0-2.45-3.19Q55.28,79.74,28.1,62.15c-1.89-1.22-3-1.83-4.51.63-1.76,2.81-3.38,5.76-5.37,8.4s-1.3,4.08,1.15,5.61c10.65,6.66,21.22,13.45,31.94,20,2.36,1.44,4.49,3.69,7.53,3.71C67.41,100.55,76,100.51,84.89,100.51ZM22.27,173.26v0c-5.24,0-10.48,0-15.71,0-2.9,0-4.54.67-3.32,4.17,1.62,4.65,2.86,9.43,4.24,14.16.69,2.34,1.59,3.22,4.15,1.62,9.34-5.86,18.83-11.47,28.23-17.23.64-.4,1.83-.93,1.52-1.78-.24-.64-1.32-.93-2.29-.92C33.48,173.29,27.87,173.26,22.27,173.26ZM241,100.39l.32,1q17.1,0,34.2,0c1.56,0,1.95-.49,1.35-2-1.6-4.1-3-8.31-4.68-12.35-2.05-4.81-2.17-4.75-6.67-1.91-2.29,1.45-4.6,2.86-6.89,4.29Z" transform="translate(49.83 49.83)"/><path class="cls-4" d="M118.53,221.67c0-19.45-.07-38.9.07-58.35,0-3.31-.73-4.43-4.31-4.41-34.15.2-68.3.19-102.45.23-3.35,0-6.71-.16-10.07-.11-1.5,0-2-.29-2.21-2A136.59,136.59,0,0,1-.5,129.32c.39-4.27,1-8.47,1.6-12.7.34-2.5,1.39-3.35,4.05-3.34,36.16.1,72.31,0,108.46.17,4,0,4.89-1.2,4.88-5-.08-33.66,0-67.32.05-101,0-5.57,0-5.46,6.68-6.44,8.9-1.3,17.83-.5,26.75-.68,1.18,0,2.36.59,3.56.68,8.38.69,8.22.67,8.18,9-.13,32.9-.11,65.81-.26,98.72,0,3.61,1,4.67,4.85,4.66,36.4-.18,72.8,0,109.21-.21,3.53,0,3.78,1.67,4.23,4.21,2.09,11.67,1.37,23.44,1.46,35.18,0,6.36,0,6.36-6.28,6.36-36.4.05-72.79.14-109.19.05-3.42,0-4.33.88-4.32,4.31.14,34.91.09,69.82.09,104.73,0,3.93,0,7.86,0,11.79,0,2.74-.94,4-4.27,4.23-9.3.62-18.59.47-27.88.65-3.73.07-7.36-.61-11-.76-2.75-.1-1.64-2.08-1.64-3.24-.08-19.7-.06-39.39-.06-59.09Z" transform="translate(49.83 49.83)"/><path class="cls-5" d="M104.39,234.23q0,20.94,0,41.9c0,3.17-1.33,4.21-4.12,3.17-9.53-3.58-19.17-6.94-28.05-12A150,150,0,0,1,35,237.3c-1.65-1.83-1.8-3.32.71-4.82,8.33-5,16.67-10,24.64-15.47,12.74-8.71,25.94-16.72,38.51-25.67a10.59,10.59,0,0,1,1.95-1c2.43-1.09,3.66-1.05,3.61,2.37C104.27,206.54,104.38,220.38,104.39,234.23Z" transform="translate(49.83 49.83)"/><path class="cls-5" d="M178.6,275c-1.13-1.6-.08-3.28-.07-4.9.11-25.92.39-51.84.51-77.76,0-3.47,1.45-3.21,3.55-1.85,8,5.19,15.92,10.47,23.92,15.66q16.2,10.5,32.46,20.9c2,1.31,4.14,2.5,6.13,3.86,3.54,2.41,3.72,4.61.76,7.74-7.94,8.39-16.09,16.66-26,22.66-6.53,4-13,8.16-20.23,11-3.8,1.48-7.81,2.52-11.5,4.33-2.88-.51-6.21.88-8.56-2C179.51,274.51,178.93,274.84,178.6,275Z" transform="translate(49.83 49.83)"/><path class="cls-6" d="M178.45,45c0-12.1,0-24.19,0-36.29,0-2.63.08-3.54,3.4-2.57,18.37,5.39,34.71,14.55,49.76,26.14,3.53,2.72,6.49,6.16,9.77,9.21,1.3,1.21,1.05,1.55-.46,2.53-8.51,5.51-16.85,11.3-25.3,16.91-11.3,7.49-22.22,15.56-33.8,22.64-.91.56-1.61,1.94-2.83,1.17-1.06-.67-.48-2-.48-3.08Q178.42,63.32,178.45,45Z" transform="translate(49.83 49.83)"/><path class="cls-5" d="M104.45,10.17q0,35.3-.11,70.58c0,1.11.82,2.64-.63,3.32-1.26.6-2.27-.44-3.34-1.09-11.72-7.07-22.71-15.21-34-22.88C58.81,55,51.3,49.85,43.59,45c-3-1.89-2.66-3.36-.5-5.38A147.78,147.78,0,0,1,70.64,19.15c8.84-5.07,18-9.44,27.93-12.08C101.28,6.68,103.58,7.06,104.45,10.17Z" transform="translate(49.83 49.83)"/><path class="cls-7" d="M94.54,173.21c1.59,0,3.47.09,5.33,0s3.41,0,3.75,2,1,4-1.13,5.42c-4.49,3-8.9,6.13-13.42,9.07q-17.64,11.52-35.45,22.78c-7.8,4.92-15.79,9.61-23.1,15.31-1.29,1-2.44,1.29-3.58-.64-1.5-2.54-3.64-4.69-5.22-7.2-2.89-4.58-2.83-4.67,1.69-7.42C32.17,207.19,41,202,49.73,196.6c11.12-6.84,22.4-13.44,33-21.13C86.43,172.72,90.31,173.45,94.54,173.21Z" transform="translate(49.83 49.83)"/><path class="cls-8" d="M188,100a32.67,32.67,0,0,1-4.85-.06c-1.39-.21-3.52,1.74-4.12-1.35-.49-2.54-.84-4.54,1.94-6.36,15.58-10.21,31-20.64,46.51-31q8.86-5.93,17.75-11.82c1.34-.89,2.54-1.39,3.78.29,2.34,3.17,4.68,6.37,7.29,9.31,1.33,1.49.92,2.24-.38,3.08-7.82,5.07-15.53,10.31-23.49,15.14-9.67,5.87-19.52,11.49-28.64,18.17C198.88,99.05,193.92,100.77,188,100Z" transform="translate(49.83 49.83)"/><path class="cls-7" d="M198.82,173.75c8.31,0,16.63-.18,24.93.07,4.54.14,7.7,3.67,11.31,5.9,11.9,7.37,23.64,15,35.29,22.39-1.31,4.26-4.22,7.69-5.93,11.76-.71,1.7-1.64,2.34-3.63,1.08q-17.21-10.89-34.6-21.51c-9-5.48-17.71-11.31-26.4-17.21C199.4,176,198.83,175.86,198.82,173.75Z" transform="translate(49.83 49.83)"/><path class="cls-9" d="M84.89,100.51c-8.9,0-17.48,0-26,0-3,0-5.17-2.27-7.53-3.71C40.59,90.24,30,83.45,19.37,76.79c-2.45-1.53-3.11-3-1.15-5.61s3.61-5.59,5.37-8.4c1.54-2.46,2.62-1.85,4.51-.63Q55.22,79.81,82.44,97.32A5.5,5.5,0,0,1,84.89,100.51Z" transform="translate(49.83 49.83)"/><path class="cls-10" d="M22.27,173.26c5.6,0,11.21,0,16.82,0,1,0,2,.28,2.29.92.31.85-.88,1.38-1.52,1.78-9.4,5.76-18.89,11.37-28.23,17.23-2.56,1.6-3.46.72-4.15-1.62C6.1,186.81,4.86,182,3.24,177.38c-1.22-3.5.42-4.18,3.32-4.17,5.23,0,10.47,0,15.71,0Z" transform="translate(49.83 49.83)"/><path class="cls-10" d="M241,100.39,258.6,89.45c2.29-1.43,4.6-2.84,6.89-4.29,4.5-2.84,4.62-2.9,6.67,1.91,1.72,4,3.08,8.25,4.68,12.35.6,1.5.21,2-1.35,2q-17.1,0-34.2,0Z" transform="translate(49.83 49.83)"/><path class="cls-5" d="M10.16,99.78C6,100,5.44,99.33,6.88,95.61c1.38-3.53,3.06-7,4.25-10.53,1-3,2.93-3.16,5.07-1.92,7.11,4.14,14.14,8.42,21.11,12.78.89.56,2.54,1.74,1.87,2.87-1.12,1.87-3.31,1-5.12,1-2.33-1.3-4.88-.66-7.28-.58C21.24,99.38,15.65,98.37,10.16,99.78Z" transform="translate(49.83 49.83)"/><path class="cls-10" d="M279.21,177.05c-1.44,3.59-2,7.44-3,11.14-.91,3.18-2.36,2.5-3.9,1.34-5.16-3.89-11-6.62-16.27-10.39-1.36-1-4.26-.73-3.61-3.73,4.28-.31,8.65.94,12.86-.69h5.27c1.07,1.2,2.52.79,3.76.7A6.37,6.37,0,0,1,279.21,177.05Z" transform="translate(49.83 49.83)"/><path class="cls-11" d="M178.6,275c.33-.13.91-.46,1-.37,2.35,2.88,5.68,1.49,8.56,2-2.18,2-5.13,2.53-7.74,2.7C178,279.46,178.56,276.74,178.6,275Z" transform="translate(49.83 49.83)"/><path class="cls-12" d="M10.16,99.78c5.49-1.41,11.08-.4,16.62-.58,2.4-.08,4.95-.72,7.28.58Z" transform="translate(49.83 49.83)"/><path class="cls-13" d="M279.21,177.05a6.37,6.37,0,0,0-4.93-1.64c-1.24.09-2.69.5-3.76-.7,2.36-.07,4.73-.05,7.08-.25S279.83,175.47,279.21,177.05Z" transform="translate(49.83 49.83)"/><path class="cls-14" d="M104.45,10.17c-.87-3.11-3.17-3.49-5.88-3.1a17.14,17.14,0,0,1,5.88-1.71Z" transform="translate(49.83 49.83)"/><path class="cls-12" d="M265.25,174.72c-4.21,1.63-8.58.38-12.86.69C256.6,173.79,261,174.84,265.25,174.72Z" transform="translate(49.83 49.83)"/></g></g></g></svg>