<svg xmlns="http://www.w3.org/2000/svg" viewBox="0 0 109.9 109.8"><defs><style>.cls-1{fill:#d6b18f;}.cls-2{fill:#fff;}.cls-3{fill:none;stroke:#fff;stroke-miterlimit:10;stroke-width:0.5px;}</style></defs><g id="Calque_2" data-name="Calque 2"><g id="Calque_1-2" data-name="Calque 1"><path class="cls-1" d="M55.4,16.5A38.7,38.7,0,1,1,16.7,55.2,38.73,38.73,0,0,1,55.4,16.5ZM88.1,55.2A32.7,32.7,0,1,0,55.4,87.9,32.65,32.65,0,0,0,88.1,55.2Z"/><path class="cls-1" d="M67.8,28H60.2C52,28,48.4,31.6,48.4,38.5v7.3H42.7v9.3h5.7V82.5h11V55h7.7l.8-9.2H59.4V40.5c0-2.2.4-3,2.5-3h5.9V28ZM55.4,22.4A32.7,32.7,0,1,1,22.7,55.1,32.65,32.65,0,0,1,55.4,22.4Z"/><path class="cls-2" d="M67.8,28v9.6H61.9c-2.1,0-2.5.9-2.5,3v5.3h8.5l-.8,9.2H59.4V82.6h-11V55.2H42.7V45.9h5.7V38.6c0-6.9,3.7-10.5,11.8-10.5C61.5,28,67.8,28,67.8,28Z"/><circle class="cls-3" cx="55.4" cy="55.2" r="32.7"/><path class="cls-1" d="M107.2,52.2s2.7-.5,2.7,3.6-3.2,3.3-3.2,3.3-7.4-1.7-10.1-.8l-2.7.5V52.9h2.5S98.4,54.4,107.2,52.2Z"/><path class="cls-1" d="M94.5,16.5c2.9,2.9,0,4.6,0,4.6s-6.5,4-7.8,6.5l-1.5,2.2-4.1-4.2,1.8-1.8s2.5-.3,7.2-8.1C90.1,15.8,91.7,13.6,94.5,16.5Z"/><path class="cls-1" d="M94,89.7s2.3,1.5-.6,4.4-4.6.1-4.6.1-4.1-6.4-6.7-7.6l-2.3-1.5,4.1-4.2,1.8,1.7C85.8,82.7,86.1,85.2,94,89.7Z"/><path class="cls-1" d="M58.4,107.1s.5,2.7-3.6,2.7-3.3-3.2-3.3-3.2,1.7-7.4.8-10.1l-.5-2.7h5.9v2.5S56.2,98.3,58.4,107.1Z"/><path class="cls-1" d="M55.1,0c4.1,0,3.3,3.2,3.3,3.2s-1.7,7.4-.8,10.1l.5,2.7H52.2V13.5s1.6-2-.7-10.8C51.5,2.7,51,0,55.1,0Z"/><path class="cls-1" d="M25.9,80.7,30,84.9l-1.8,1.8s-2.5.3-7.3,8c0,0-1.6,2.2-4.4-.7s0-4.6,0-4.6,6.5-4,7.8-6.5Z"/><path class="cls-1" d="M29.5,25.7l-4.1,4.2-1.8-1.8s-.3-2.5-8.2-7.1c0,0-2.3-1.5.6-4.4s4.6-.1,4.6-.1,4.1,6.4,6.6,7.7Z"/><path class="cls-1" d="M16,52.4v5.9H13.5s-2-1.6-10.8.7c0,0-2.7.5-2.7-3.6s3.2-3.3,3.2-3.3,7.4,1.7,10.1.8Z"/></g></g></svg>