<?xml version="1.0" encoding="utf-8"?>
<!-- Generator: Adobe Illustrator 25.2.0, SVG Export Plug-In . SVG Version: 6.00 Build 0)  -->
<svg version="1.1" id="Calque_1" xmlns="http://www.w3.org/2000/svg" xmlns:xlink="http://www.w3.org/1999/xlink" x="0px" y="0px"
	 viewBox="0 0 252 324" style="enable-background:new 0 0 252 324;" xml:space="preserve">
<style type="text/css">
	.st0{fill:#D5B18E;}
	.st1{opacity:0.1;}
	.st2{fill:#AB6728;}
	.st3{opacity:0.15;}
	.st4{fill:#B6753F;}
	.st5{fill:#B26F33;}
	.st6{fill:#A85317;}
	.st7{fill:#BC7D4A;}
	.st8{fill:none;}
</style>
<g id="Calque_3">
	<rect y="0" class="st0" width="252" height="324"/>
</g>
<g id="Calque_1_1_">
	<g class="st1">
		<path class="st2" d="M193.9,174.8c-2.6,4.4-4.5,7.5-4.2,13.5c0.3,6.5,3.3,5.5,7.5,5.2c0.6-5.3,5.5-12.3,9-8.9
			c2,1.9,5.3,6.5,8.3,3.6c2.1-2,0.2-5.8,0.5-8.7c2.9-1.1,3.7-0.1,5.9,2.3c2.4,2.7,4.5,3.7,7.6,3.1c0.4-3.3-3.2-5-2.6-8
			c0.4-1.7,1.7-0.5,2.4-2.1c0.8-1.8-0.8-3.1,0.3-4.7c2.2-3.5,7.4,1,3.3-5.8c-1.1-1.7-1.8-0.9-1.3-3.9c0.5-2.8,3.1-4.8,3.8-7.5
			c2.1-8.3-5.6-3.6-7.4-7.4c-1.7-3.4-0.1-10-1.8-13.5c-2.4-5.1-2.8,2.1-2.9,4.9c-0.1,2.3,0.8,2.7-1.2,3.2c-1.6,0.4-2.4-1.3-3.7-2
			c-5.3-3-5.3,4.3-6.4,9.1c-1.2,5.3-6,4.3-4.9,11.2c0.3,1.8,1.5,2.4,0.5,4.1c-1.6,3-6,0.5-7.6-1c-2.6-2.4-2.5-5.6-4.2-8.5
			c-2.2-3.7-5.8-3.6-9-3.4c0.1,3.2-0.2,6.6-1.5,9.2c-1.3,2.5-4.8,3.6-3.2,6.6c2.2,4.1,6.4,1,9.1,2.1c3.1,1.3,2.4,2.8,2.6,6.3
			C193.1,174.1,193.6,174.7,193.9,174.8z"/>
	</g>
	<g class="st1">
		<path class="st2" d="M168,128.2c0.5,1.9,0.5,2.7,0.5,4.4c0,1.9-0.6,3.3,0.9,4.8c-1.4,2.3-1.6,3.2-0.7,6.1c0.2,0.9,0.4,2,0.9,2.8
			c0.8,1.4,1.8,1.2,2.5,2.6c1.2,2.5-0.7,6.3-1.1,8.6c-0.9,4.9-3.4,2.4-5.4,5.5c-2.3,3.5,1.2,5.8,2.4,8.2c1.3,2.7,0.6,4.4-0.2,6.4
			c-0.3,0.8-0.4,2.7-0.8,3.6c-0.5,1.2-1.4,1.8-2.2,3.2c-2.1,3.7-1.4,6.8,0.5,10.2c2.3,4.2-0.4,3.4-2.2,6.7c-1.1,2-3.2,8.2-2.6,10.9
			c0.4,1.8,2.5,2.1,2.7,4.1c0.4,3.4-3.1,1.7-4,3.6c-0.5,1-0.3,7.1,0,8.4c0.8,3.4,3.8,2.6,6.1,2.6c1.4,0,2.9,0.4,3.7-1.2
			c0.7-1.3-0.1-3.5,0.4-5c0.9-2.7,3.4-2.6,4.9-0.9c1,1.1,1.3,3,2.4,3.8c1.1,0.7,2.7,0.3,3.9,0.8c0-2.5,0.7-5.1,0.3-7.5
			c0.8-0.1,1.9-0.3,2.7,0c1.2,0.4,1.5,1.4,2.7,2.1c1.5,0.9,3.7,0.5,3.3-2.3c2-0.3,5.9,2.2,7.2,0.2c1.3-2.1-1-5.2,0.5-6.6
			c0.6-0.6,3.8,0,4.3,0.5c1,0.9,1,2.9,1.4,4.5c0.9,3.4,2.7,4.3,5.7,3.1c1.1-0.4,2.7-3.2,4-2.3c1.7,1.1,0.6,5.9,3.1,7
			c2,0.9,4.2-0.5,3.6-3.5c-0.5-2.3-2.4-2.6-3.2-4.6c0.6-0.5,1.5-0.5,2.3-0.4c0.2-2.1-1.7-3.8-1.6-5.6c0.3-2.7,3.4-3.4,4.8-3.8
			c4-1.2,8-0.5,12.1-0.8c0-2.8-5-5.3-6.9-6.5c-3.7-2.3-3.4-2.6-1-6.2c1-1.6,0.8-1.3,1.2-3.3c0.5-2.2,0-1.4,1.3-2.9
			c0.9-1.1,1.4,0,1.8-1.8c0.4-1.9-1.2-3.8-0.9-5.8c0.5-3.2,5.3-3.8,3.3-8.2c-0.9-2-5.4-2.4-7-3.1c-3.7-1.6-2.3-2-2.3-5.9
			c0-4.7-3.9-1.8-6.3-3.4c-4.9-3.4,2.7-12.3,3.2-16.8c0.6-4.7-5.4-3.4-7.7-2.6c-3.3,1.2-6.5,1.3-10,1.1c-0.1-1.3,0.9-3.3,0.7-4.3
			c-0.5-1.8-2.7-0.8-3.7,0c-3.2,2.6-2.4,7.6-7.4,7.8c-1.6,0.1-4.9-1.3-4.7-4.1c0.1-1.9,2.2-1.8,2.2-3.8c0-2.4-2.9-2-4.2-2
			c-2.1-0.1-8.2,1.1-9.7-1.1c-1.3-1.9,0.6-6.1-0.6-8.4c-1.6-2.9-6.5-5-8.8-6.2c-0.6-0.3-2.4-1.7-3.1-0.8c-0.8,0.9-0.1,3.9,0.3,4.8
			C164.3,126.6,167.4,125.8,168,128.2z"/>
	</g>
	<g class="st3">
		<path class="st4" d="M234.1,209c2.6-5.6,5.2-11.8,4.8-18.4c-0.4-6.9-4.5-13.1-9.5-14.4c-3.1-0.8-6.5,0-9.4-1.8
			c-3.8-2.4-5.4-8.5-8.1-12.9c-2.6-4.3-6.5-7.1-10.6-7.6h-0.1c-5.3-0.6-9.5,5.7-9,12.8c0.3,3.7-0.4,7.6-2.1,10.6
			c-3.4,6.2-9.9,8.2-13.5,14.2c-2.5,4.1-3.3,9.9-2.2,15s4.2,9.3,8,10.8c4.6,1.9,9.5,0,14.2,1.1c6,1.4,10.9,7.5,16.9,8.9
			c3.2,0.7,6.5,0,9.4-1.9C228.1,222.1,231.3,215.4,234.1,209z"/>
	</g>
	<g class="st3">
		<path class="st5" d="M229.5,206.4c2.1-4.7,4.3-9.8,4-15.2c-0.3-5.7-3.7-10.9-7.9-12c-2.6-0.7-5.4,0-7.8-1.5
			c-3.2-2-4.5-7.1-6.7-10.7c-2.2-3.5-5.4-5.9-8.8-6.3h-0.1c-4.4-0.5-7.9,4.7-7.5,10.7c0.2,3.1-0.4,6.3-1.7,8.8
			c-2.8,5.2-8.2,6.8-11.2,11.8c-2.1,3.4-2.8,8.2-1.8,12.4s3.5,7.7,6.6,9c3.8,1.5,7.9,0,11.8,0.9c5,1.2,9.1,6.3,14.1,7.4
			c2.6,0.6,5.4,0,7.8-1.6C224.5,217.3,227.1,211.7,229.5,206.4z"/>
	</g>
	<g class="st1">
		<path class="st2" d="M69.9-17.2C71.2-4.3,57.8-0.3,58.7,11.2c0.8,10.7,12.1,3.6,15.8,11.3c6,12.6-5.9,16.6-8.2,25.8
			c-3.2,13,2.3,23.3,4.6,34c4,18.8-12.8,13.2-13.6,29.8c-0.4,8,6.2,14.5,8.5,20.7c2.7,7.4,0.9,14.7,2.8,21.2
			c4.1,14.1,10-2.5,13.1-9.1c4.2-8.8,13.2-13.8,14.2,1.4c0.7,10.9-5,20.7,2.7,26.9c2.4,1.9,11.2,3.2,13.3-0.2
			c2.6-4.2-0.3-15.2,0.8-20.3c1.5-6.6,3-9.9,9.1-6.6c6.5,3.6,5,8.7,7.2,16.9c2.8,10.5,9.7,16.7,14.3,4.6c3.7-9.6,0.3-23.3,4.3-33.2
			c5.7-14,9.3,6.5,17.5,1.4c7.2-4.5,4.8-20.3,14.7-18.2c7.4,1.6,8,16,16,17c11.9,1.6,5.9-12.6,8.4-21.6c3.2-11.1,17.9,4,23.9,8.8
			c2.5,2,5.2,7.4,7.5,8.5c6,3,4.6-2,7.2-6c2.4-3.6,0.8-7.2,5.4-6.9c4.5,0.3,7.6,14.1,11.7,17.1c6.4,4.7,15.1-3,10.6-14.8
			c-3.3-8.6-12.2-7.9-14.8-17.9c-0.9-3.2-2.1-23.3-0.4-26.1c2.2-3.7,6,2.6,8.1-3.6c3.5-10.1-6.2-16.2-8.5-21.4
			c-1.1-2.4-2.4-3.1-3.2-5.9c7.5-10.6,19.2-2.7,27.8-8.2c8.3-5.3,9.3-23.3,2.2-32.5c-6.5-8.3-12.5-3.9-18.9,1.8
			c-7,6.4-13.5,16.2-17.6,3.4c-4.5-13.8,3.3-35.5-13.9-29.3C224-16.9,224-5.1,218.1,1.8c-7.2,8.3-15.5,7.1-19.6,21.9
			c-1.3,4.5,0.1,12.3-2.7,15.7c-2.3,2.7-10.4,0-12.6-1.8c-7.8-6.4-6.4-15.3-17.5-13.9c-8.3,1-19,16.3-27.3,12.6
			c-13-5.8-3.2-30.7,2.3-38.7c5-7.3,16.7-8.3,14-22.7c-2.4-13-16.2-18.7-23.3-15.9c-3.3,1.3-5.3,5.4-8.3,6.9
			c-5.9,2.9-8.8-0.4-13.4,8.7c-7.5,15.2-2.4,21.8-16.6,17.3C86-10.3,76.9-21.5,69.9-17.2z"/>
	</g>
	<g class="st3">
		<path class="st6" d="M0,53.1c-1.2,0-2.4,2.6-3.2,3.5c-1.2,1.3-2.3,2.9-3.5,4.3c-0.8,0.9-1.9,1.4-2.1,2.8c-0.3,1.6,0.3,3.1,1.1,4.3
			c1.6,2.1,5.8,1.6,6.3,4.9c0.3,2-2.2,3.9-3.2,4.8C-6.2,79-7,78.9-6.8,81.8c0.3,3.9,3.6,6.3,5.8,8.6c0.9,1,1.9,1.8,2.1,3.5
			c0.2,1.8-0.5,2.2-1.2,3.5c-0.6,1.2-1,1.7-2,2.3c-1.1,0.7-2.1,1-3,2.1c-2.3,2.6-4.6,5.8-7.3,7.5c-0.8,0.5-1.5,0.9-2.2,1.4
			c-1.1,0.8-1.6,1.7-2.5,3c-1.1,1.7-2.3,3.1-3.3,4.9c-0.8,1.5-1.9,3.2-3,4.2c-2.1,1.9-0.6,5-0.5,7.8c0.1,1.5,0.2,3-0.5,4.2
			c-0.8,1.5-2.5,2.4-3.7,3.3c-0.4,0.3-0.5,0.8-1,0.9c-0.5,0.2-1-0.1-1.6,0.1c-0.9,0.3-2.2,1.2-2.6,2c-1.1,1.8-1.7,6.2,0.5,7.1
			c0.4,0.2,1.1-0.1,1.6-0.1c0.7,0,0.9,0.3,1.6,0.6c1.1,0.4,2.5,0.2,3.7,0.2c2.6-0.1,4.9-1.5,7.4-2.3c1.8-0.6,3.4-1.3,5.1-2.1
			c1.4-0.6,3.1-0.9,3.5-2.8c0.4-1.9,0.1-2.9,1.6-3.4c3.1-0.9,5.4,0.7,7.9,2.9c1.4,1.3,2.4,3.1,3.7,4.6c1.1,1.2,2,1.2,2.1,3.1
			c0.1,1.7-0.5,4.3,0.3,5.7c0.5,0.9,0.5,0.3,1.3,0.8c1.8,1.1,3.1,0.9,5,1.3c1.2,0.2,2.7,1.5,3.4,2.7c1.3,2.3,2.3,4.4,3.2,7.1
			c0.6,1.8,1.6,3.1,1.9,5.1c0.1,1,0,2.2,0,3.3c0,1.2,0.1,2.4-0.1,3.6c-0.2,0.9-0.7,1.9-0.4,3c0.7,2.6,3.2,1.1,4.3,0.2
			c1.4-1.1,2.9-2.1,4.5-2.7c1.2-0.2,2.4-0.7,3.6-1.2c0.7-0.6,1.5-1.1,2.3-1.5c1.2-0.6,1.3-0.6,2.3,0.1c1.3,1,2.1,3.9,2.6,5.6
			c1,3.1,1.9,6.2,2.8,9.3c0.9,2.7,2.1,7.5,4.7,8c-0.9,0-0.5,3.5-0.5,4.7c0,3.3-0.6,5.5-1.6,8.5c-1.3,4.1-2.2,7.5-2.1,12
			c0,2.2,0.4,4.2,1.1,6.3c0.7,2.5,0.5,5.3,1.1,7.8c0.3,1,0.9,1.6,1,2.8c0,0.7-0.2,1.3,0.1,1.9c0.4,0.9,1.8,2.3,2.4,3
			c0.9,1.1,2.4,1.1,3.3,2.1c1,1.1-0.2,2.8-1,4c-1.6,2.6-4,4.3-5.8,6.6c-1,1.2-2.5,2.4-2.6,4.2c-0.2,3.9,1.4,7.1-0.5,10.7
			c-1.1,2.1-2.2,4.2-3.3,6.4c-0.6,1.2-1.3,3.2-0.9,4.8c0.3,1,1.5,1.3,2.1,1.9c0.8,0.8,1.3,2,2,2.9c1.9,2.1,4.1,4.3,6.4,5.7
			c0.9,0.5,2,0.6,1,2.2c-0.4,0.7-1.1,0.7-1.6,1.2c-0.5,0.4-0.6,1-1,1.4c-0.8,1-2.2,1.4-1,3c1.7,2.2,5.4,3,7.6,2.8
			c2.6-0.2,5.1-2.5,7-4.9c2-2.5,4.6-5.5,7.4-5.7c2.3-0.2,2.5,0.5,2.5,3.7c0,2.9-0.4,4.9-1.2,7.5c-1.3,4.4,2.4,5.8,4.6,8.1
			c1.6,1.7,2.4,4.5,3.5,6.8c1-0.3,0.9-2,1.5-2.9c1-1.5,2.8-2.2,4.2-2c2,0.3,3,2.3,4.2,4.3c1.4,2.5,2,3.6,2,6.9
			c-0.1,2.4-0.3,4.1-1.7,5.7c-1.2,1.3-2.8,2.4-4,3.8c-1.1,1.4-2.1,4.5-2.7,6.3c-0.7,2.3-0.7,5.2-0.4,7.6c0.1,0.7,0.2,2.2,0.4,2.9
			c0.1,0.6,0.5,0.7,0.6,1.3c0.3,1.9-1.4,3.3-2.1,4.6c-0.9,1.6-1.5,2.8-0.6,4.6c0.5,0.9,1.3,1.4,2,2.1c1.2,1.2,2.5,3.1,3.9,3.8
			c1.9,0.9,4.2,1.2,6.1,1.7c2.7,0.7,5.3-0.1,7.3-2.6c2.2-2.8,4.9-4.7,6.8-8c1.3-2.3,1.9-4.3,2.7-6.9c0.5-1.7,1.2-2.5,2.5-2.8
			c1.1-0.3,2.4,0,3.5,0c0.6,0,1.5-0.2,2.2,0.1c3.4,1.6,2.1,11.5,2.1,14.9c0,3.1-0.5,6.9,0.4,9.8c0.1,0.5,0.5,1.8,0.7,2.1
			c0.5,0.9,0.1,0.3,1,0.7c1.4,0.5,3.3,0.7,4.7,0.7c2.8,0,5.8,0.1,7.9-2.8c0.9-1.4,1.7-2.8,2.6-4.2c1-1.7,2.1-3.7,2.5-5.8
			c0.4-1.9,0.6-4.1,0.6-6.1c0.1-2.2-0.4-4.9,0-7c0.2-1.6,0.4-3.6,0.9-5.1c0.7-2,0.6-3.4,0.7-5.6c0-3.7-1.3-8.1-0.4-11.9
			c2.6-0.7,5.8-0.1,8.4-0.1c1.7,0,3.4,0,5.2,0c2.2,0,5.1,0.6,7.3,0c1.6-0.4,1.5-1.7,2-3.5c0.6-2.5,1.8-4.1,3.7-4.9
			c0.7-0.3,1.4-0.9,2.1-1.3c1.2-0.6,2.4-0.6,3.6-1.4c2.2-1.4,2-5.8,1.6-8.6c-0.5-3.9-2.4-7.4-3.4-11.1c-0.9-3.2-1.7-6.5-1.7-9.9
			c0-1.3,0.2-2.7-0.1-3.9c-0.4-1.8-1.2-2.7-1-4.8c0.2-1.3,0-1.5,1.2-1.9c1.2-0.2,2.4-0.2,3.5-0.1c2.9,0,5.7-0.8,8.6-1.4
			c4-0.9,7.7-2,11.6-3.4c1-0.4,3.9-0.5,4.3-2.2c0.2-0.9-0.5-2.7,0-3.5c0.5-0.7,3.9-0.8,4.5-0.9c3.8-0.9,7.1-3.9,10.6-6
			c0.7-0.4,1.3-0.6,1.6-1.6c0.3-0.9,0.5-2.6,0.5-3.6c0.1-2.7-1.5-15,2-14.9c0.2-1,0.4-2.3-0.4-2.7c-0.5-0.3-2,0-2.5,0.2
			c-0.7,0.3-1.4,1.4-2.3,1.2c-1.1-0.2-2.6-2.7-3.5-3.7c-1.2-1.3-1.6-2.8-1.2-4.7c0.5-2.1,2-5.8,0.6-7.8c-0.9-1.3-2.9-0.7-4.1-0.7
			c-1.1,0-2.2,0-3.2,0c-1.7,0-3.3,0.4-4.6-1.6c-1.9-2.9-4.6-9.3-2.8-12.7c0.7-1.3,2.7-3.4,1.4-5.3c-0.6-0.1-1.2-0.2-1.9-0.3
			c-1.6-0.4-3-0.6-4.7-0.6c-3,0-5.9,0-8.9,0c-1.5,0-1.9-0.5-3.2-1.4c-1.2-0.9-2.5-1.3-3.7-2.1c-1.1-0.8-2.1-1.3-2.6-2.8
			c-0.7-2.1-1.4-4.3-2-6.4c-0.4-1.5-0.6-2.6-0.6-4.2c0-0.9,0.7-2.9,0.5-3.6c-0.4-1.4-3.5-0.7-4.2-0.7c-2.8,0-5.5-0.2-8.2,0.7
			c-1,0.4-0.9,0.8-2-0.2c-0.8-0.7-1.5-1.4-1.7-2.6c-0.3-1.9,0.4-3.6,1.2-5.1c2.1-3.6,4.6-5.5,7.7-7.1c0.1-4.1-2.3-6.4-4.1-9.4
			c-1.9-3.2-3.6-6.6-5.7-9.5c-1.4-1.8-4.1-2-6-2.1c-1.7-0.1-6.1-1.1-7.3,1.2c-1,1.8,0.4,4.8-0.9,6.4c-1.6,2-4.3,0.2-6.2,0.8
			c-1.1,0.4-1.8,1.9-2.7,2.9c-0.3,0.5-0.7,1-1.2,1.4c-0.9,1-1,1.7-1.6,2.9c-1.3,2.6-3.3,3.7-5.6,3.5c-2.4-0.2-4.1-4-5.1-6.6
			c-0.8-1.9-0.5-5.3-2.7-4.8c-1.2,0.3-2.4,1.3-3.2,2.3c-1.6,1.8-3.3,3.1-5,4.8c-1.7,1.6-4.2,6.4-6.6,3.6c-0.3-0.5-0.5-1.1-0.7-1.6
			c-0.6-1.2-1.5-1.7-2.2-2.7c-0.6-0.8-1-1.8-1.4-2.8c-0.3-0.6-1-1.6-1.1-2.3c-0.2-1.6,0.7-2.6,1.3-3.9c1.7-3.4,5-6,7.5-8.7
			c0.9-1,1.8-1.7,2.5-2.9c1-1.8,1.5-1.9,3.1-2c-3.3-5.3-4.2-13.3-6.1-19.5c-0.8-2.5-1.9-4.6-2.8-7c-0.6-1.8-1.4-3.9-3-4.5
			c-3.6-1.2-7.4,1.8-10.9,2.2c-1.1,0.1-2,0.7-3.2,0.7c-1.4,0-2.4,0-3.7,0.7c-2.2,1.1-4.7,1.9-6.8,3.5c-1.2,0.9-0.8,1.1-1,2.8
			c-0.1,1.1-1.7,3.4-2.7,2.7c-0.8-0.6-0.3-1.7-0.6-2.6s-0.8-1.3-1-2.2c-0.4-1.8,0-4.5,0-6.4s0.1-3.2,0.4-4.9
			c0.3-1.6,0.2-3.4-0.5-4.8c-1.3-2.4-3.4-3.9-4.6-6.5c-0.5-1.1-0.9-2.9-1.1-4.2c-0.2-1.6,0.4-3.4-0.1-4.9c-1-3.8-5.4-3.5-7.7-3.5
			c-1.4,0-2.8,0-4.2,0c-2.4,0-3.8-0.2-5.8-2.2c-1.7-1.6-2-5.7-1.6-8.4c0.2-1,0.7-1.2,1-2.1s0.1-2,0.1-2.9c-0.1-2.6-0.9-3.6-2.7-4.8
			c-3.1-1.8-6.5-1.6-9.8-1.6c-3.5,0-6.9-0.4-10.4-0.7c-1.5-0.1-2.8-1.3-4.2-1.4c-1.2-0.1-2-0.5-3.1-0.8s-2-1.2-3.1-1.3
			c-0.5,0-0.9,0.1-1.4-0.1C2,54,1,53.1,0,53.1z"/>
	</g>
	<g class="st1">
		<path class="st2" d="M258.3,17.3c-0.1,0.7-1.1,1.1-1.5,1.3c-0.6,0.4-1.2,0.4-1.9,0.4c-0.5,0-1.1,0.1-1.6-0.1
			c-0.3-0.1-0.5-0.2-0.8-0.3c-0.3-0.1-0.5-0.3-0.8-0.4c-0.5-0.2-1.1,0.1-1.6,0c-0.9-0.1-1.6-0.8-2.5-1c-0.5-0.1-1.2-0.5-1.6-0.5
			c-0.7,0.1-1.1,1.5-1.5,2.2c-0.8,1.1-1.1,2.7-1.4,4.1c-0.2,0.8-0.4,0.8-1,0.7c-0.9-0.2-2-0.3-2.8-1.1c-1.2-1.1-2.2-2-2.9-3.8
			c-0.5-1.4-1.8-1.4-2.8-0.7c-0.9,0.6-1.8,1.5-2.5,2.6c-0.4,0.6-0.5,0.9-0.6,1.7c-0.2,0.8-1,2.5-1.5,2.8s-1.5,0-2.1,0
			c-0.9,0-1.7,0.1-2.6-0.3c-0.6-0.3-1-0.8-1.6-1.2c-0.6-0.4-1-0.1-1.6,0.4c-1.2,1.1-2.2,1-3.6,1.3c-0.6,0.1-1.4-0.2-1.9,0.1
			c-0.5,0.2-0.6,0.9-0.8,1.3c-0.5,1-1.3,1.7-2.3,1.5s-1.4-2.4-2.6-1.7c-0.4,0.2-0.7,0.8-1.1,1.1c-0.5,0.3-1,0.6-1.5,0.9
			c-0.4,0.2-0.9,0.2-1.1,0.8c-0.1,0.6,0.1,0.8,0.3,1.2c0.2,0.1,0.4,0.3,0.5,0.6c0,0.2,0.1,0.5,0.1,0.7c0.2,0.6,0.4,0.7,0.5,1.4
			c0.1,0.9,0.6,1.7-0.3,2.1c-1.7,0.8-3.8,0.4-5.2-1.1c-0.9-0.9-1.3-2.4-1.6-3.8c-0.3-1.2-0.6-2.6-0.7-3.9c-1.6-0.6-3,0.3-4.3,1.4
			c-1.2,0.9-2.9,1.8-4.3,1.8c-0.6,0-1.4,0.2-2-0.1c-0.6-0.3-0.7-1.2-1.1-1.7c-0.4-0.5-0.6-0.3-1.1-0.4c-1.1-0.2-2.1-0.6-3.2-0.7
			c-1.1-0.2-2.6,0-3.5-0.9s-1.9-1.7-2.7-2.6c-0.4-0.3-0.9-0.9-1.4-0.6c-0.4,0.2-0.6,1.6-1,2.1c-1.1,1.5-2.8,1.2-4.2,1.1
			c-1-0.1-1.8-0.7-2.8-0.7c-0.8,0-1.7,0-2.4-0.6c-0.2,0.4-0.4,1.2-0.5,1.6c-0.1,1.2,0,1.1-0.8,1.8c-0.2,0.2-0.3,0.4-0.5,0.6
			c-0.2,0.1-0.6,0.2-0.8,0.3c-0.5,0.2-0.8,0.4-1.3,0.5c-0.1,0.6,0.7,1.4,0.9,1.7c0.8,1,1.7,2,2.3,3.2c0.6,1.1,0.2,2.5,0.4,3.8
			c0.2,1.1,0.9,2.3,0.7,3.6c-0.2,1.6-1.9,2.6-2.9,3.1c-0.5,0.3-1.2,0.3-1.3,1.1c-0.1,0.7,0,1.7,0,2.4c0,1.2,0.4,3-0.5,3.7
			c-0.5,0.4-1.1,0.6-1.6,1c-1.3,0.8-2.6,1.4-3.8,2.1c-0.7,0.4-1.3,0.8-1.6,1.7c-0.2,0.7-0.3,1.7-0.3,2.5c0.1,0.9,0.5,1.6,0.5,2.4
			c0.1,0.9,0.1,1.7,0.2,2.6c0.1,0.5,0.2,1.3,0,1.8c-0.3,0.8-0.9,0.7-1.3,1.1c-0.2,0.2-0.3,0.4-0.3,0.7c-0.2,0.3-0.5,0.4-0.7,0.7
			c-0.3,0.4-0.4,1.2-0.5,1.8c-0.4,2,0.8,4,1.6,5.6c0.4,0.7,0.7,1.7,1.2,2.2c0.3,0.3,0.5,0.4,0.8,0.7c0.3,0.4,0.3,0.9,0.6,1.3
			c0.5,0.7,1.1,0.4,1.7,0.4c0.7,0,1.6,0.2,2.2-0.2c0.3-0.3,0.7-0.9,0.9-1.3c0.1-0.2,0.2-0.4,0.3-0.6c0-0.1,0-0.2,0.1-0.4
			c0.1-0.2,0.3-0.3,0.4-0.4c0.2-0.3,0-0.6,0-1c0.1-0.4,0.4-0.7,0.6-1.1c0.2-0.5,0.6-1.1,1-1.4c0.2,0.9,0.4,1.6,0.6,2.4
			c0.2,0.7,0.5,1.2,0.7,1.8c0.5,1.4,0.4,3.3,1.2,4.6c0.8,1.1,1.3,1,2.4,1c1.3,0,2.6-0.1,3.9,0c0.5,0,0.6,0,0.5,0.7
			c0,0.5-0.2,1.2-0.3,1.7c-0.2,1.1-0.9,2.3-1.3,3.3c-0.3,0.7-1.1,1.6-1.2,2.4c0.3,0.3,0.5,0.9,0.7,1.2c0.3,0.5,0.7,1.2,0.8,1.7
			c0.3,1.5-0.3,3.4,0,4.9c0.5,2.3,2.3,2.1,3.7,2.1c0.8,0,1.7,0.2,2.4-0.3c0.6-0.4,0.8-1,1.2-1.7c0.5-0.9,0.9-2.1,1.5-2.8
			c-0.2,1.2,0.6,2,0.8,3.1c0,0.2,0,0.5,0,0.7c0.1,0.4,0.2,0.7,0.3,1.1c0.1,0.6,0,1.6-0.2,2.2c-0.3,0.9-1.1,1.9-0.8,3.1
			c0.3,1.1,1.3,2,2.1,2.4c0.7,0.4,1.2,0.2,1.8,0.5c0,0.7,0.4,0.8,0.5,1.3c0.2,0.8-0.4,1.4-0.7,2.1c-0.2,0.5-0.5,1-0.6,1.5
			c-0.3,0.9-0.8,2-0.9,2.9c-0.1,0.5-0.2,1.8-0.1,2.3c0.1,0.6,0.7,1,1.1,1.4c0.5,0.5,0.7,0.7,1.3,0.7c0.4,0,1.3-0.3,1.5,0.2
			c0.2-0.3,0.3-0.6,0.5-1c0.3-0.9,0.5-1.6,0.9-2.4c0.5-1.2,0.5-2,1.5-2.5c1.1-0.6,1.2-1.6,1.6-3.1c0.2-0.8,0.3-1.6,0.8-2.2
			c0.5-0.5,1.1-0.3,1.8-0.3c0.8,0,3-0.6,3.4,0.7c0.5,1.4,0.4,3.2,0.9,4.6c0.3,0.9,0.2,2.2,1,2.7c1,0.7,2.2-0.1,3.1,0.5
			c0,0.7,0.5,1.6,0.9,2c0.6,0.7,2.2,0.7,2.9,0.8c1.3,0.1,2.6,0,3.9,0c0.3,0,0.7,0.1,1,0c0.5-0.1,0.4,0,0.5-0.7
			c0.1-0.8,0.1-2.1-0.1-2.8c-0.3-1-0.9-1.8-1.1-2.8c-0.2-0.7-0.1-1.3,0.2-1.8c0.4-0.8,0.5-0.9,0.5-2c0-0.6-0.3-1.2-0.2-1.7
			c0.1-0.4,0.6-0.6,0.7-1.1c0.5-2-0.9-3.1-1.5-4.6c-0.2-0.5-0.3-1.1-0.4-1.7c-0.1-0.5-0.4-1.2-0.2-1.9c0.2-0.8,0.7-0.7,1.3-0.7
			c0.4,0,0.7,0,1,0.1c0.6,0.1,1.3,0.2,1.9,0.4c1.1,0.4,2.2,0.8,3.4,1c0.6,0.1,0.8,0,1.3,0.3c0.4,0.2,0.7,0.5,1.1,0.8
			c0.4,0.3,0.8,0.7,1.2,1c0.5,0.3,0.9,0.2,1.4,0.4c0.5,0.2,0.7,0.9,1.3,1c0.7,0.2,1.6,0,2.4,0c0.9,0,1.2,0,1-1.4
			c-0.3-1.5-1.1-2.1-1.8-3.2c-0.6-1-1.3-2.2-2.1-2.9c-0.6-0.6-1.2-1.4-1.8-2c-0.5-0.6-1.2-1.4-1-2.5c0.3-1.6,1.9-1,2.8-1
			c0.4,0,1.2,0.2,1.6-0.1c0.1-0.1,0.4-0.5,0.5-0.6c0.2-0.3,0.6-0.6,0.7-1.1c0.2-0.6,0.1-1.9,0-2.6c-0.1-0.4-0.3-0.8-0.5-1.2
			c0-0.1-0.2-0.7-0.3-0.8c-0.6-1.1-1.8-2.7,0-2.8c1.3-0.1,2.3,1.2,3.5,1.9c0.2,0.2,0.5,0.4,0.8,0.6c0.4,0.4,0.6,0.9,1,1.4
			c0.6,0.7,1.4,0.8,2,1.3c1.3,1-0.2,3.5,0.8,4.7c0.4,0.5,1.5,0.6,2,0.7s1.4,0.1,1.9-0.1c0.7-0.3,1.5-1.7,1.8-2.4
			c0.3-0.6,0.5-1.2,0.5-1.9c0.1-0.8,0.2-1.5,0.3-2.3c0.7-0.2,1.3-0.4,2.1-0.4c1.2,0,2.4,0.4,3.6,0.4c0.5,0,1.1-0.1,1.5,0
			c1,0.3,1.6,0.5,2.6-0.1c0.6-0.3,0.8-0.5,0.8-1.4c0-0.7,0.1-1.7,0-2.4c-0.1-0.8-0.6-1.4-0.7-2.1c-0.1-0.3,0-0.6-0.1-1
			s-0.3-0.6-0.2-1.1c0.3-1.8,2.4-1.8,3.5-1.8c1.3,0,2.3,0.8,3.6,1.1c0.8,0.2,1.6,0.4,2.4,0.4c0.7,0,0.9-0.2,1.2,0.8
			c0.3,1,0.3,2.2,0.6,3.2c0.2,0.7,0.7,1.1,1,1.7c0.2,0.4,0.1,0.6,0.3,0.9c0.7,0.8,2.4,0.6,3.1,0c0.7-0.5,0.8-0.7,0.8-1.7
			s0.1-2.2-0.1-3.1c-0.2-1-0.1-1.2,0.1-2.3c0.2-0.9,0.2-1.7,0.2-2.6c0-1.1-0.1-2.1-0.3-3.1c-0.2-0.7-0.5-1.1-0.5-1.9
			c0-0.6,0-1.2,0-1.7c0-0.9,0.5-1.4,0.8-2.1c0.2-0.6,0.8-1.1,1-1.7c0.4-1.5-1.2-1.5-1.8-1.8c-0.7-0.3-1.3-0.3-2.1-0.4
			c-0.5,0-0.8-0.2-1.3-0.4c-0.4-0.1-0.8-0.1-1.3-0.3c-0.4-0.2-0.9-0.5-1.3-0.6c-0.8-0.3-1.7-0.4-2.4-0.8c-0.7-0.4-0.5-1-0.5-1.8
			c0-1,0.1-2.2-0.1-3.2c-0.2-1.1-0.2-2-0.2-3.2c0-0.6,0-1.1,0-1.7c0-0.2,0-0.5,0-0.7s0.1-0.3,0.2-0.4c0-2.2-4.5-1.5-5.7-2
			c-2-1,0-4.3,0.6-5.7c0.4-1.2,0.7-2.3,1.3-3.5c0.4-0.8,0.8-1.2,1.1-2.1c0.5-1.5,0-3.3,0.2-4.9c0.2-1.1,0.1-2.2,0.6-3.2
			c0.2-0.5,0.4-1,0.7-1.4c0.3-0.5,0.6-0.7,0.7-1.3c0.5-1.9,0.6-3.6,0.6-5.6c0-1.3,0.2-0.9,1-1c0.3,0,0.4-0.2,0.6-0.3
			C257.4,18.7,258,17.8,258.3,17.3z"/>
	</g>
	<g class="st3">
		<path class="st7" d="M245.7,101.2c3.4-7.6,7-15.8,6.5-24.7c-0.5-9.3-6-17.7-12.8-19.4c-4.2-1.1-8.7,0.1-12.6-2.4
			c-5.2-3.2-7.3-11.5-10.9-17.4c-3.5-5.8-8.8-9.5-14.2-10.2c-0.1,0-0.1,0-0.2,0c-7.1-0.8-12.8,7.7-12.1,17.3
			c0.3,5-0.6,10.2-2.8,14.2c-4.6,8.4-13.3,11.1-18.2,19.2c-3.3,5.5-4.5,13.4-2.9,20.2c1.5,6.8,5.7,12.5,10.8,14.5
			c6.1,2.5,12.8,0,19.1,1.4c8.1,1.9,14.7,10.1,22.8,12c4.3,1,8.8,0.1,12.7-2.6C237.6,118.8,241.9,109.8,245.7,101.2z"/>
	</g>
	<g class="st3">
		<path class="st4" d="M230.5,93.9c2.6-5.6,5.2-11.8,4.8-18.4c-0.4-6.9-4.5-13.1-9.5-14.4c-3.1-0.8-6.5,0-9.4-1.8
			c-3.8-2.4-5.4-8.5-8.1-12.9c-2.6-4.3-6.5-7.1-10.6-7.6h-0.1c-5.3-0.6-9.5,5.7-9,12.8c0.3,3.7-0.4,7.6-2.1,10.6
			c-3.4,6.2-9.9,8.2-13.5,14.2c-2.5,4.1-3.3,9.9-2.2,15s4.2,9.3,8,10.8c4.6,1.9,9.5,0,14.2,1.1c6,1.4,10.9,7.5,16.9,8.9
			c3.2,0.7,6.5,0,9.4-1.9C224.5,106.9,227.6,100.2,230.5,93.9z"/>
	</g>
	<rect x="93.6" y="290.2" class="st8" width="122.7" height="0.8"/>
</g>
</svg>
