<svg xmlns="http://www.w3.org/2000/svg" viewBox="0 0 109.9 109.8"><defs><style>.cls-1{fill:#d6b18f;}.cls-2{fill:#fff;}.cls-3{fill:none;stroke:#fff;stroke-linecap:round;stroke-linejoin:round;stroke-width:0.5px;}</style></defs><g id="Calque_2" data-name="Calque 2"><g id="Calque_1-2" data-name="Calque 1"><path class="cls-1" d="M107.2,52.2s2.7-.5,2.7,3.6-3.2,3.3-3.2,3.3-7.4-1.7-10.1-.8l-2.7.5V52.9h2.5S98.4,54.4,107.2,52.2Z"/><path class="cls-1" d="M94.5,16.5c2.9,2.9,0,4.6,0,4.6s-6.5,4-7.8,6.5l-1.5,2.2-4.1-4.2,1.8-1.8s2.5-.3,7.2-8.1C90.1,15.8,91.7,13.6,94.5,16.5Z"/><path class="cls-1" d="M94,89.7s2.3,1.5-.6,4.4-4.6.1-4.6.1-4.1-6.4-6.7-7.6l-2.3-1.5,4.1-4.2,1.8,1.7C85.8,82.7,86.1,85.2,94,89.7Z"/><path class="cls-1" d="M55.1,0c4.1,0,3.3,3.2,3.3,3.2s-1.7,7.4-.8,10.1l.5,2.7H52.2V13.5s1.6-2-.7-10.8C51.5,2.7,51,0,55.1,0Z"/><path class="cls-1" d="M57.7,96.3s-1.6,2,.7,10.8c0,0,.5,2.7-3.6,2.7s-3.3-3.2-3.3-3.2,1.7-7.4.8-10.1l-.5-2.7h5.9v2.5Z"/><path class="cls-1" d="M25.9,80.7,30,84.9l-1.8,1.8s-2.5.3-7.3,8c0,0-1.6,2.2-4.4-.7s0-4.6,0-4.6,6.5-4,7.8-6.5Z"/><path class="cls-1" d="M20.7,16.5s4.1,6.4,6.6,7.7l2.3,1.5-4.1,4.2-1.8-1.8s-.3-2.5-8.2-7.1c0,0-2.3-1.5.6-4.4S20.7,16.5,20.7,16.5Z"/><path class="cls-1" d="M16,52.4v5.9H13.5s-2-1.6-10.8.7c0,0-2.7.5-2.7-3.6s3.2-3.3,3.2-3.3,7.4,1.7,10.1.8Z"/><path class="cls-2" d="M67.4,44.5a2.9,2.9,0,1,1,2.9-2.9A2.9,2.9,0,0,1,67.4,44.5Z"/><circle class="cls-1" cx="54.6" cy="54.5" r="8"/><path class="cls-2" d="M54.6,62.5a8,8,0,1,0-8-8A8,8,0,0,0,54.6,62.5Zm12.4-8A12.4,12.4,0,1,1,54.6,42.1,12.4,12.4,0,0,1,67,54.5Z"/><path class="cls-1" d="M54.6,66.8A12.4,12.4,0,1,0,42.2,54.4,12.4,12.4,0,0,0,54.6,66.8Zm9.7-31.9a14.4,14.4,0,0,1,4.5.8,8.39,8.39,0,0,1,2.8,1.8,6.78,6.78,0,0,1,1.8,2.8,13.77,13.77,0,0,1,.8,4.5c.1,2.5.1,3.3.1,9.7s0,7.2-.1,9.7a15.08,15.08,0,0,1-.8,4.5,8.39,8.39,0,0,1-1.8,2.8,7.5,7.5,0,0,1-2.8,1.8,14.4,14.4,0,0,1-4.5.8c-2.5.1-3.3.1-9.7.1s-7.2,0-9.7-.1a15.08,15.08,0,0,1-4.5-.8,8.39,8.39,0,0,1-2.8-1.8,6.78,6.78,0,0,1-1.8-2.8,14.4,14.4,0,0,1-.8-4.5c-.1-2.5-.1-3.3-.1-9.7s0-7.2.1-9.7a15.08,15.08,0,0,1,.8-4.5,8.39,8.39,0,0,1,1.8-2.8,6.78,6.78,0,0,1,2.8-1.8,13.77,13.77,0,0,1,4.5-.8c2.5-.1,3.3-.1,9.7-.1S61.8,34.8,64.3,34.9Zm.3,6.7a2.9,2.9,0,1,0,2.9-2.9A2.84,2.84,0,0,0,64.6,41.6Z"/><path class="cls-2" d="M74.6,34.4a11.83,11.83,0,0,1,2.8,4.3,17.06,17.06,0,0,1,1.1,5.8c.1,2.6.1,3.4.1,9.9s0,7.4-.1,9.9a16.56,16.56,0,0,1-1.1,5.8,11.39,11.39,0,0,1-2.8,4.3,11.83,11.83,0,0,1-4.3,2.8,17.06,17.06,0,0,1-5.8,1.1c-2.6.1-3.4.1-9.9.1s-7.4,0-9.9-.1a16.56,16.56,0,0,1-5.8-1.1,11.39,11.39,0,0,1-4.3-2.8c-.3-.3-.6-.7-.9-1a13.5,13.5,0,0,1-1.9-3.3,17.06,17.06,0,0,1-1.1-5.8c-.1-2.6-.1-3.4-.1-9.9s0-7.4.1-9.9a16.56,16.56,0,0,1,1.1-5.8,12.26,12.26,0,0,1,1.9-3.3c.3-.3.6-.7.9-1a11.83,11.83,0,0,1,4.3-2.8,17.06,17.06,0,0,1,5.8-1.1c2.6-.1,3.4-.1,9.9-.1s7.4,0,9.9.1a17.06,17.06,0,0,1,5.8,1.1A13.29,13.29,0,0,1,74.6,34.4Zm-5.8,1.3a14.4,14.4,0,0,0-4.5-.8c-2.5-.1-3.3-.1-9.7-.1s-7.2,0-9.7.1a15.08,15.08,0,0,0-4.5.8,8.39,8.39,0,0,0-2.8,1.8,6.78,6.78,0,0,0-1.8,2.8,13.77,13.77,0,0,0-.8,4.5c-.1,2.5-.1,3.3-.1,9.7s0,7.2.1,9.7a15.08,15.08,0,0,0,.8,4.5,8.39,8.39,0,0,0,1.8,2.8,6.78,6.78,0,0,0,2.8,1.8,13.77,13.77,0,0,0,4.5.8c2.5.1,3.3.1,9.7.1s7.2,0,9.7-.1a14.4,14.4,0,0,0,4.5-.8,8.39,8.39,0,0,0,2.8-1.8,6.78,6.78,0,0,0,1.8-2.8,14.4,14.4,0,0,0,.8-4.5c.1-2.5.1-3.3.1-9.7s0-7.2-.1-9.7a15.08,15.08,0,0,0-.8-4.5,8.39,8.39,0,0,0-1.8-2.8A10.31,10.31,0,0,0,68.8,35.7Z"/><path class="cls-1" d="M77.4,38.7a11.39,11.39,0,0,0-2.8-4.3,11.83,11.83,0,0,0-4.3-2.8,17.06,17.06,0,0,0-5.8-1.1c-2.5-.1-3.4-.1-9.9-.1s-7.4,0-9.9.1a16.56,16.56,0,0,0-5.8,1.1,11.39,11.39,0,0,0-4.3,2.8c-.3.3-.6.7-.9,1l-4.9-.6a32.75,32.75,0,1,1,0,39.1l4.9-.5c.3.3.6.7.9,1a11.83,11.83,0,0,0,4.3,2.8,17.06,17.06,0,0,0,5.8,1.1c2.6.1,3.4.1,9.9.1s7.4,0,9.9-.1a16.56,16.56,0,0,0,5.8-1.1,11.39,11.39,0,0,0,4.3-2.8,11.83,11.83,0,0,0,2.8-4.3,17.06,17.06,0,0,0,1.1-5.8c.1-2.6.1-3.4.1-9.9s0-7.4-.1-9.9A17.58,17.58,0,0,0,77.4,38.7Z"/><path class="cls-1" d="M30.7,44.6c-.1,2.6-.1,3.4-.1,9.9s0,7.4.1,9.9a16.56,16.56,0,0,0,1.1,5.8,12.26,12.26,0,0,0,1.9,3.3l-4.9.5a32.8,32.8,0,0,1,0-39.2l4.9.6a13.5,13.5,0,0,0-1.9,3.3A17.7,17.7,0,0,0,30.7,44.6Z"/><path class="cls-1" d="M54.9,15.8A38.7,38.7,0,1,1,16.3,54.5,38.67,38.67,0,0,1,54.9,15.8ZM87.7,54.4A32.67,32.67,0,1,0,55,87.2,32.65,32.65,0,0,0,87.7,54.4Z"/><path class="cls-3" d="M28.7,34.9a32.65,32.65,0,1,1-6.5,19.5A32,32,0,0,1,28.7,34.9Z"/></g></g></svg>