<svg xmlns="http://www.w3.org/2000/svg" viewBox="0 0 109.9 109.8"><defs><style>.cls-1{fill:#d6b18f;}.cls-2{fill:#fff;}.cls-3{fill:none;stroke:#fff;stroke-linecap:round;stroke-linejoin:round;stroke-width:0.5px;}</style></defs><g id="Calque_2" data-name="Calque 2"><g id="Calque_1-2" data-name="Calque 1"><path class="cls-1" d="M107.2,52.2s2.7-.5,2.7,3.6-3.2,3.3-3.2,3.3-7.4-1.7-10.1-.8l-2.7.5V52.9h2.5S98.4,54.4,107.2,52.2Z"/><path class="cls-1" d="M94.5,16.5c2.9,2.9,0,4.6,0,4.6s-6.5,4-7.8,6.5l-1.5,2.2-4.1-4.2,1.8-1.8s2.5-.3,7.2-8.1C90.1,15.9,91.7,13.6,94.5,16.5Z"/><path class="cls-1" d="M94,89.7s2.3,1.5-.6,4.4-4.6.1-4.6.1-4.1-6.4-6.7-7.6l-2.3-1.5,4.1-4.2,1.8,1.7C85.8,82.7,86.1,85.2,94,89.7Z"/><path class="cls-1" d="M58.4,107.1s.5,2.7-3.6,2.7-3.3-3.2-3.3-3.2,1.7-7.4.8-10.1l-.5-2.7h5.9v2.5S56.2,98.3,58.4,107.1Z"/><path class="cls-1" d="M55.1,0c4.1,0,3.3,3.2,3.3,3.2s-1.7,7.4-.8,10.1l.5,2.7H52.2V13.5s1.6-2-.7-10.8C51.5,2.7,51,0,55.1,0Z"/><path class="cls-1" d="M25.9,80.7,30,84.9l-1.8,1.8s-2.5.3-7.3,8c0,0-1.6,2.2-4.4-.7s0-4.6,0-4.6,6.5-4,7.8-6.5Z"/><path class="cls-1" d="M29.5,25.7l-4.1,4.2-1.8-1.8s-.3-2.5-8.2-7.1c0,0-2.3-1.5.6-4.4s4.6-.1,4.6-.1,4.1,6.4,6.6,7.7Z"/><path class="cls-1" d="M16,52.4v5.9H13.5s-2-1.6-10.8.7c0,0-2.7.5-2.7-3.6s3.2-3.3,3.2-3.3,7.4,1.7,10.1.8Z"/><path class="cls-1" d="M54.5,22.2A32.7,32.7,0,1,1,21.8,54.9,32.65,32.65,0,0,1,54.5,22.2ZM79.2,54.9s0-8.1-1-12a6.3,6.3,0,0,0-4.4-4.4c-3.9-1-19.3-1-19.3-1s-15.4,0-19.3,1a6.48,6.48,0,0,0-4.4,4.4c-1,3.9-1,12-1,12s0,8.1,1,12a6.3,6.3,0,0,0,4.4,4.4c3.8,1,19.3,1,19.3,1s15.4,0,19.3-1a6.48,6.48,0,0,0,4.4-4.4C79.2,63,79.2,54.9,79.2,54.9Z"/><path class="cls-2" d="M78.2,43c1,3.9,1,12,1,12s0,8.1-1,12a6.3,6.3,0,0,1-4.4,4.4c-3.9,1-19.3,1-19.3,1s-15.4,0-19.3-1A6.48,6.48,0,0,1,30.8,67c-1-3.9-1-12-1-12s0-8.1,1-12a6.3,6.3,0,0,1,4.4-4.4c3.8-1,19.3-1,19.3-1s15.4,0,19.3,1A6,6,0,0,1,78.2,43ZM49.5,62.3,62.4,55,49.5,47.7Z"/><polygon class="cls-1" points="62.4 54.9 49.5 62.3 49.5 47.6 62.4 54.9"/><path class="cls-1" d="M93.2,54.9A38.7,38.7,0,1,1,54.5,16.2,38.73,38.73,0,0,1,93.2,54.9ZM54.5,87.6A32.7,32.7,0,1,0,21.8,54.9,32.65,32.65,0,0,0,54.5,87.6Z"/><circle class="cls-3" cx="54.5" cy="54.9" r="32.7"/></g></g></svg>